<svg width="24" height="24" viewBox="0 0 24 24" fill="none" xmlns="http://www.w3.org/2000/svg">
<path d="M4.09202 18.782L4.43251 18.1138L4.43251 18.1138L4.09202 18.782ZM3.21799 17.908L3.88624 17.5675L3.88624 17.5675L3.21799 17.908ZM20.782 17.908L20.1138 17.5675L20.1138 17.5675L20.782 17.908ZM19.908 18.782L20.2485 19.4503L20.2485 19.4503L19.908 18.782ZM20.782 6.09202L20.1138 6.43251L20.1138 6.43251L20.782 6.09202ZM19.908 5.21799L20.2485 4.54973L20.2485 4.54973L19.908 5.21799ZM3.21799 6.09202L2.54973 5.75153L2.54973 5.75153L3.21799 6.09202ZM4.09202 5.21799L3.75153 4.54973L3.75153 4.54973L4.09202 5.21799ZM13.2665 11.9638L13.7414 12.5443L13.2665 11.9638ZM10.7335 11.9638L10.2586 12.5443L10.2586 12.5443L10.7335 11.9638ZM21 8.2H20.25V15.8H21H21.75V8.2H21ZM17.8 19V18.25H6.2V19V19.75H17.8V19ZM3 15.8H3.75V8.2H3H2.25V15.8H3ZM6.2 5V5.75H17.8V5V4.25H6.2V5ZM6.2 19V18.25C5.62757 18.25 5.24336 18.2494 4.94748 18.2252C4.66035 18.2018 4.52307 18.1599 4.43251 18.1138L4.09202 18.782L3.75153 19.4503C4.08879 19.6221 4.44545 19.6892 4.82533 19.7203C5.19646 19.7506 5.65232 19.75 6.2 19.75V19ZM3 15.8H2.25C2.25 16.3477 2.24942 16.8035 2.27974 17.1747C2.31078 17.5546 2.37789 17.9112 2.54973 18.2485L3.21799 17.908L3.88624 17.5675C3.8401 17.4769 3.79822 17.3396 3.77476 17.0525C3.75058 16.7566 3.75 16.3724 3.75 15.8H3ZM4.09202 18.782L4.43251 18.1138C4.19731 17.9939 4.00608 17.8027 3.88624 17.5675L3.21799 17.908L2.54973 18.2485C2.81338 18.7659 3.23408 19.1866 3.75153 19.4503L4.09202 18.782ZM21 15.8H20.25C20.25 16.3724 20.2494 16.7566 20.2252 17.0525C20.2018 17.3396 20.1599 17.4769 20.1138 17.5675L20.782 17.908L21.4503 18.2485C21.6221 17.9112 21.6892 17.5546 21.7203 17.1747C21.7506 16.8035 21.75 16.3477 21.75 15.8H21ZM17.8 19V19.75C18.3477 19.75 18.8035 19.7506 19.1747 19.7203C19.5546 19.6892 19.9112 19.6221 20.2485 19.4503L19.908 18.782L19.5675 18.1138C19.4769 18.1599 19.3396 18.2018 19.0525 18.2252C18.7566 18.2494 18.3724 18.25 17.8 18.25V19ZM20.782 17.908L20.1138 17.5675C19.9939 17.8027 19.8027 17.9939 19.5675 18.1138L19.908 18.782L20.2485 19.4503C20.7659 19.1866 21.1866 18.7659 21.4503 18.2485L20.782 17.908ZM21 8.2H21.75C21.75 7.65232 21.7506 7.19646 21.7203 6.82533C21.6892 6.44544 21.6221 6.08879 21.4503 5.75153L20.782 6.09202L20.1138 6.43251C20.1599 6.52307 20.2018 6.66035 20.2252 6.94748C20.2494 7.24336 20.25 7.62757 20.25 8.2H21ZM17.8 5V5.75C18.3724 5.75 18.7566 5.75058 19.0525 5.77476C19.3396 5.79822 19.4769 5.8401 19.5675 5.88624L19.908 5.21799L20.2485 4.54973C19.9112 4.37789 19.5546 4.31078 19.1747 4.27974C18.8035 4.24942 18.3477 4.25 17.8 4.25V5ZM20.782 6.09202L21.4503 5.75153C21.1866 5.23408 20.7659 4.81338 20.2485 4.54973L19.908 5.21799L19.5675 5.88624C19.8027 6.00608 19.9939 6.19731 20.1138 6.43251L20.782 6.09202ZM3 8.2H3.75C3.75 7.62757 3.75058 7.24336 3.77476 6.94748C3.79822 6.66035 3.8401 6.52307 3.88624 6.43251L3.21799 6.09202L2.54973 5.75153C2.37789 6.08879 2.31078 6.44544 2.27974 6.82533C2.24942 7.19646 2.25 7.65232 2.25 8.2H3ZM6.2 5V4.25C5.65232 4.25 5.19646 4.24942 4.82533 4.27974C4.44545 4.31078 4.08879 4.37789 3.75153 4.54973L4.09202 5.21799L4.43251 5.88624C4.52307 5.8401 4.66035 5.79822 4.94748 5.77476C5.24336 5.75058 5.62757 5.75 6.2 5.75V5ZM3.21799 6.09202L3.88624 6.43251C4.00608 6.19731 4.19731 6.00608 4.43251 5.88624L4.09202 5.21799L3.75153 4.54973C3.23408 4.81338 2.81338 5.23408 2.54973 5.75153L3.21799 6.09202ZM21 5.63637L20.5251 5.0559L12.7915 11.3833L13.2665 11.9638L13.7414 12.5443L21.4749 6.21684L21 5.63637ZM10.7335 11.9638L11.2085 11.3833L3.47493 5.0559L3 5.63637L2.52507 6.21684L10.2586 12.5443L10.7335 11.9638ZM13.2665 11.9638L12.7915 11.3833C12.3311 11.7601 11.6689 11.7601 11.2085 11.3833L10.7335 11.9638L10.2586 12.5443C11.2716 13.3731 12.7284 13.3731 13.7414 12.5443L13.2665 11.9638Z" fill="#7A7A7A"/>
</svg>
