<svg width="24" height="24" viewBox="0 0 24 24" fill="none" xmlns="http://www.w3.org/2000/svg">
<path d="M11.8368 2.67185C9.34799 2.67185 9.03558 2.68276 8.05814 2.7272C7.08254 2.77192 6.41659 2.92634 5.83393 3.15297C5.23112 3.38702 4.71986 3.70015 4.21052 4.20967C3.70072 4.7191 3.38759 5.23037 3.15281 5.8329C2.92554 6.41574 2.77094 7.08197 2.72704 8.05711C2.68333 9.03464 2.67188 9.34714 2.67188 11.836C2.67188 14.3249 2.68287 14.6363 2.72723 15.6137C2.77213 16.5893 2.92654 17.2553 3.15299 17.8379C3.38722 18.4407 3.70036 18.952 4.20988 19.4613C4.71913 19.9711 5.23039 20.285 5.83274 20.519C6.41585 20.7457 7.0819 20.9001 8.05732 20.9448C9.03485 20.9893 9.34698 21.0002 11.8357 21.0002C14.3247 21.0002 14.6361 20.9893 15.6135 20.9448C16.5892 20.9001 17.2558 20.7457 17.8389 20.519C18.4415 20.285 18.952 19.9711 19.4612 19.4613C19.971 18.952 20.284 18.4407 20.5189 17.8382C20.7441 17.2553 20.8988 16.5891 20.9446 15.6139C20.9885 14.6365 21 14.3249 21 11.836C21 9.34714 20.9885 9.03483 20.9446 8.0573C20.8988 7.08169 20.7441 6.41583 20.5189 5.83318C20.284 5.23037 19.971 4.7191 19.4612 4.20967C18.9515 3.69997 18.4417 3.38683 17.8384 3.15306C17.2542 2.92634 16.5879 2.77183 15.6123 2.7272C14.6347 2.68276 14.3235 2.67185 11.8339 2.67185H11.8368ZM11.0147 4.32331C11.2587 4.32294 11.531 4.32331 11.8368 4.32331C14.2837 4.32331 14.5736 4.33211 15.5399 4.376C16.4334 4.41687 16.9183 4.56616 17.2414 4.69161C17.669 4.85766 17.9739 5.05625 18.2945 5.37708C18.6152 5.69783 18.8137 6.00326 18.9802 6.43095C19.1057 6.75353 19.2552 7.23849 19.2959 8.13199C19.3397 9.09806 19.3493 9.38819 19.3493 11.8339C19.3493 14.2796 19.3397 14.5698 19.2959 15.5358C19.255 16.4293 19.1057 16.9143 18.9802 17.2369C18.8142 17.6646 18.6152 17.9691 18.2945 18.2897C17.9738 18.6105 17.6692 18.8089 17.2414 18.9751C16.9187 19.1011 16.4334 19.25 15.5399 19.2909C14.5738 19.3348 14.2837 19.3443 11.8368 19.3443C9.38977 19.3443 9.09973 19.3348 8.13375 19.2909C7.24025 19.2496 6.75529 19.1004 6.43198 18.9749C6.00439 18.8088 5.69886 18.6103 5.37811 18.2895C5.05737 17.9688 4.85888 17.6641 4.69237 17.2362C4.56691 16.9135 4.41745 16.4286 4.37676 15.5351C4.33286 14.569 4.32406 14.2789 4.32406 11.8316C4.32406 9.38444 4.33286 9.09577 4.37676 8.12969C4.41763 7.2362 4.56691 6.75123 4.69237 6.4282C4.85851 6.00051 5.05737 5.69508 5.37821 5.37433C5.69895 5.05359 6.00439 4.85501 6.43207 4.68859C6.75511 4.56258 7.24025 4.41367 8.13375 4.37261C8.97913 4.3344 9.30675 4.32294 11.0147 4.32102V4.32331ZM16.7285 5.84491C16.1214 5.84491 15.6289 6.33702 15.6289 6.94423C15.6289 7.55135 16.1214 8.04392 16.7285 8.04392C17.3357 8.04392 17.8282 7.55135 17.8282 6.94423C17.8282 6.33711 17.3357 5.84454 16.7285 5.84454V5.84491ZM11.8368 7.1298C9.23783 7.1298 7.13065 9.23699 7.13065 11.836C7.13065 14.435 9.23783 16.5412 11.8368 16.5412C14.4358 16.5412 16.5422 14.435 16.5422 11.836C16.5422 9.23708 14.4356 7.1298 11.8366 7.1298H11.8368ZM11.8368 8.78126C13.5238 8.78126 14.8915 10.1488 14.8915 11.836C14.8915 13.523 13.5238 14.8908 11.8368 14.8908C10.1497 14.8908 8.78211 13.523 8.78211 11.836C8.78211 10.1488 10.1497 8.78126 11.8368 8.78126Z" fill="#7A7A7A"/>
</svg>
